<svg width="32" height="32" viewBox="0 0 32 32" version="1.1" xmlns="http://www.w3.org/2000/svg" xmlns:xlink="http://www.w3.org/1999/xlink">
<title>favicon</title>
<desc>Created using Figma</desc>
<g id="Canvas" transform="translate(1647 429)">
<g id="favicon">
<g id="Rectangle">
<use xlink:href="#path0_fill" transform="translate(-1647 -429)" fill="url(#paint0_radial)"/>
</g>
<g id="logo">
<g id="Ellipse 2">
<mask id="mask0_outline_ins">
<use xlink:href="#path1_fill" fill="white" transform="translate(-1645 -427)"/>
</mask>
<g mask="url(#mask0_outline_ins)">
<use xlink:href="#path2_stroke_2x" transform="translate(-1645 -427)" fill="#FFFFFF"/>
</g>
</g>
<g id="Rectangle 2">
<use xlink:href="#path3_fill" transform="matrix(0.707107 0.707107 -0.707107 0.707107 -1625.17 -421.168)" fill="#FFFFFF"/>
</g>
</g>
</g>
</g>
<defs>
<radialGradient id="paint0_radial" cx="0.5" cy="0.5" r="0.5" gradientUnits="userSpaceOnUse" gradientTransform="matrix(31.9221 31.9562 -31.9562 10.0912 0.0170409 -21.0237)">
<stop offset="0.0276243" stop-color="#EF5350"/>
<stop offset="1" stop-color="#D32F2F"/>
</radialGradient>
<path id="path0_fill" d="M 0 4C 0 1.79086 1.79086 0 4 0L 28 0C 30.2091 0 32 1.79086 32 4L 32 28C 32 30.2091 30.2091 32 28 32L 4 32C 1.79086 32 0 30.2091 0 28L 0 4Z"/>
<path id="path1_fill" d="M 28 14C 28 21.732 21.732 28 14 28C 6.26801 28 0 21.732 0 14C 0 6.26801 6.26801 0 14 0C 21.732 0 28 6.26801 28 14Z"/>
<path id="path2_stroke_2x" d="M 25 14C 25 20.0751 20.0751 25 14 25L 14 31C 23.3888 31 31 23.3888 31 14L 25 14ZM 14 25C 7.92487 25 3 20.0751 3 14L -3 14C -3 23.3888 4.61116 31 14 31L 14 25ZM 3 14C 3 7.92487 7.92487 3 14 3L 14 -3C 4.61116 -3 -3 4.61116 -3 14L 3 14ZM 14 3C 20.0751 3 25 7.92487 25 14L 31 14C 31 4.61116 23.3888 -3 14 -3L 14 3Z"/>
<path id="path3_fill" d="M 1.09576 0.930025C 1.14373 0.403286 1.58539 1.12967e-05 2.11431 7.26129e-06L 2.11431 7.26129e-06C 2.65066 3.16924e-06 3.09591 0.414322 3.13446 0.949283L 3.85763 10.9858C 3.93455 12.0533 3.08923 12.9617 2.01895 12.9617L 2.01895 12.9617C 0.934836 12.9617 0.0847869 12.0307 0.183113 10.9511L 1.09576 0.930025Z"/>
</defs>
</svg>
