<svg width="32" height="32" viewBox="0 0 32 32" version="1.1" xmlns="http://www.w3.org/2000/svg" xmlns:xlink="http://www.w3.org/1999/xlink">
<title>favicon</title>
<desc>Created using Figma</desc>
<g id="Canvas" transform="translate(1647 429)">
<g id="favicon">
<g id="Rectangle">
<use xlink:href="#path0_fill" transform="translate(-1647 -429)" fill="url(#paint0_radial)"/>
</g>
<g id="logo">
<g id="Ellipse 2">
<mask id="mask0_outline_ins">
<use xlink:href="#path1_fill" fill="white" transform="translate(-1645 -427)"/>
</mask>
<g mask="url(#mask0_outline_ins)">
<use xlink:href="#path2_stroke_2x" transform="translate(-1645 -427)" fill="#FFFFFF"/>
</g>
</g>
<g id="Rectangle 2">
<use xlink:href="#path3_fill" transform="matrix(0.707107 0.707107 -0.707107 0.707107 -1625.17 -421.168)" fill="#FFFFFF"/>
</g>
</g>
</g>
</g>
<defs>
<radialGradient id="paint0_radial" cx="0.5" cy="0.5" r="0.5" gradientUnits="userSpaceOnUse" gradientTransform="matrix(31.9221 31.9562 -31.9562 10.0912 0.0170409 -21.0237)">
<stop offset="0.0276243" stop-color="#EF5350"/>
<stop offset="1" stop-color="#D32F2F"/>
</radialGradient>
<path id="path0_fill" d="M 0 2C 0 0.895431 0.895431 0 2 0L 30 0C 31.1046 0 32 0.895431 32 2L 32 30C 32 31.1046 31.1046 32 30 32L 2 32C 0.895431 32 0 31.1046 0 30L 0 2Z"/>
<path id="path1_fill" d="M 28 14C 28 21.732 21.732 28 14 28C 6.26801 28 0 21.732 0 14C 0 6.26801 6.26801 0 14 0C 21.732 0 28 6.26801 28 14Z"/>
<path id="path2_stroke_2x" d="M 26 14C 26 20.6274 20.6274 26 14 26L 14 30C 22.8366 30 30 22.8366 30 14L 26 14ZM 14 26C 7.37258 26 2 20.6274 2 14L -2 14C -2 22.8366 5.16344 30 14 30L 14 26ZM 2 14C 2 7.37258 7.37258 2 14 2L 14 -2C 5.16344 -2 -2 5.16344 -2 14L 2 14ZM 14 2C 20.6274 2 26 7.37258 26 14L 30 14C 30 5.16344 22.8366 -2 14 -2L 14 2Z"/>
<path id="path3_fill" d="M 1.09576 0.930025C 1.14373 0.403286 1.58539 1.12967e-05 2.11431 7.26129e-06L 2.11431 7.26129e-06C 2.65066 3.16925e-06 3.09591 0.414322 3.13446 0.949283L 3.85763 10.9858C 3.93455 12.0533 3.08923 12.9617 2.01895 12.9617L 2.01895 12.9617C 0.934836 12.9617 0.0847869 12.0307 0.183113 10.9511L 1.09576 0.930025Z"/>
</defs>
</svg>
