<svg width="30" height="30" viewBox="0 0 30 30" version="1.1" xmlns="http://www.w3.org/2000/svg" xmlns:xlink="http://www.w3.org/1999/xlink">
<title>logo</title>
<desc>Created using Figma</desc>
<g id="Canvas" transform="translate(187 352)">
<g id="logo">
<g id="Ellipse 2">
<mask id="mask0_outline_ins">
<use xlink:href="#path0_fill" fill="white" transform="translate(-187 -352)"/>
</mask>
<g mask="url(#mask0_outline_ins)">
<use xlink:href="#path1_stroke_2x" transform="translate(-187 -352)" fill="#FFFFFF"/>
</g>
</g>
<g id="Rectangle 2">
<use xlink:href="#path2_fill" transform="matrix(0.707107 0.707107 -0.707107 0.707107 -165.751 -345.751)" fill="#FFFFFF"/>
</g>
</g>
</g>
<defs>
<path id="path0_fill" d="M 30 15C 30 23.2843 23.2843 30 15 30C 6.71573 30 0 23.2843 0 15C 0 6.71573 6.71573 0 15 0C 23.2843 0 30 6.71573 30 15Z"/>
<path id="path1_stroke_2x" d="M 28 15C 28 22.1797 22.1797 28 15 28L 15 32C 24.3888 32 32 24.3888 32 15L 28 15ZM 15 28C 7.8203 28 2 22.1797 2 15L -2 15C -2 24.3888 5.61116 32 15 32L 15 28ZM 2 15C 2 7.8203 7.8203 2 15 2L 15 -2C 5.61116 -2 -2 5.61116 -2 15L 2 15ZM 15 2C 22.1797 2 28 7.8203 28 15L 32 15C 32 5.61116 24.3888 -2 15 -2L 15 2Z"/>
<path id="path2_fill" d="M 1.17402 0.996455C 1.22542 0.432092 1.69864 1.21036e-05 2.26533 7.77995e-06L 2.26533 7.77995e-06C 2.83999 3.39562e-06 3.31705 0.443916 3.35835 1.01709L 4.13317 11.7705C 4.21558 12.9142 3.30989 13.8875 2.16317 13.8875L 2.16317 13.8875C 1.00161 13.8875 0.0908431 12.8901 0.196193 11.7333L 1.17402 0.996455Z"/>
</defs>
</svg>
