<svg width="62" height="62" viewBox="0 0 62 62" version="1.1" xmlns="http://www.w3.org/2000/svg" xmlns:xlink="http://www.w3.org/1999/xlink">
<title>play</title>
<desc>Created using Figma</desc>
<g id="Canvas" transform="translate(957 68)">
<g id="play">
<g id="Ellipse 3">
<mask id="mask0_outline_ins">
<use xlink:href="#path0_fill" fill="white" transform="translate(-957 -68)"/>
</mask>
<g mask="url(#mask0_outline_ins)">
<use xlink:href="#path1_stroke_2x" transform="translate(-957 -68)" fill="#FFFFFF"/>
</g>
</g>
<g id="Polygon">
<use xlink:href="#path2_fill" transform="matrix(6.12323e-17 1 -1 6.12323e-17 -906 -58)" fill="#FFFFFF"/>
</g>
</g>
</g>
<defs>
<path id="path0_fill" d="M 62 31C 62 48.1208 48.1208 62 31 62C 13.8792 62 0 48.1208 0 31C 0 13.8792 13.8792 0 31 0C 48.1208 0 62 13.8792 62 31Z"/>
<path id="path1_stroke_2x" d="M 59 31C 59 46.464 46.464 59 31 59L 31 65C 49.7777 65 65 49.7777 65 31L 59 31ZM 31 59C 15.536 59 3 46.464 3 31L -3 31C -3 49.7777 12.2223 65 31 65L 31 59ZM 3 31C 3 15.536 15.536 3 31 3L 31 -3C 12.2223 -3 -3 12.2223 -3 31L 3 31ZM 31 3C 46.464 3 59 15.536 59 31L 65 31C 65 12.2223 49.7777 -3 31 -3L 31 3Z"/>
<path id="path2_fill" d="M 20.5 0L 38.2535 30.75L 2.74648 30.75L 20.5 0Z"/>
</defs>
</svg>
